<svg xmlns="http://www.w3.org/2000/svg" viewBox="0 0 240 240" width="240" height="240">
  <defs>
    <filter id="shadow2" x="-20%" y="-20%" width="150%" height="150%">
      <feDropShadow dx="4" dy="10" stdDeviation="8" flood-color="#1a1a1a" flood-opacity="0.2"/>
    </filter>
  </defs>
  <g filter="url(#shadow2)">
    <!-- Vine Cherry Tomato 1 -->
    <circle cx="80" cy="110" r="34" fill="#DC2626"/>
    <circle cx="70" cy="98" r="10" fill="#EF4444" opacity="0.6"/>
    <circle cx="68" cy="95" r="4" fill="#FFFFFF" opacity="0.8"/>
    <path d="M80 76 L75 65 M80 76 L85 62 M80 76 L68 70 M80 76 L92 72" stroke="#047857" stroke-width="4" stroke-linecap="round"/>

    <!-- Tomato 2 -->
    <circle cx="140" cy="130" r="38" fill="#B91C1C"/>
    <circle cx="128" cy="116" r="12" fill="#DC2626" opacity="0.7"/>
    <circle cx="126" cy="112" r="4.5" fill="#FFFFFF" opacity="0.85"/>
    <path d="M140 92 L136 80 M140 92 L146 78 M140 92 L128 86" stroke="#047857" stroke-width="4" stroke-linecap="round"/>

    <!-- Red Onion Rings -->
    <ellipse cx="155" cy="175" rx="35" ry="22" transform="rotate(-20 155 175)" fill="none" stroke="#831843" stroke-width="6"/>
    <ellipse cx="155" cy="175" rx="30" ry="18" transform="rotate(-20 155 175)" fill="none" stroke="#FCE7F3" stroke-width="4"/>
    <ellipse cx="155" cy="175" rx="25" ry="14" transform="rotate(-20 155 175)" fill="none" stroke="#BE185D" stroke-width="5"/>

    <!-- Fresh Parsley/Cilantro -->
    <path d="M110 50 Q130 30 150 45 Q165 35 160 55 Q175 60 160 75 Q145 80 135 65 Z" fill="#10B981"/>
    <path d="M135 55 Q150 40 165 50" stroke="#047857" stroke-width="2.5" fill="none"/>
    <circle cx="190" cy="150" r="3.5" fill="#1F2937"/>
    <circle cx="200" cy="165" r="4" fill="#374151"/>
    <circle cx="185" cy="175" r="3" fill="#111827"/>
  </g>
</svg>
